<svg data-v-423bf9ae="" xmlns="http://www.w3.org/2000/svg" viewBox="0 0 294.9510835961848 60" class="font"><g data-v-423bf9ae="" id="c364177b-4a01-469a-a731-61663d1de98b" fill="black" transform="matrix(5.870841881720861,0,0,5.870841881720861,-4.872798624179154,-18.727985461784655)"><path d="M4.65 3.39L0.83 3.39L0.83 3.42C1.19 3.65 1.58 4.33 1.58 5.43L1.58 11.02C1.58 12.17 1.18 12.85 0.83 13.09L0.83 13.12L4.26 13.12L4.26 13.09C3.89 12.85 3.50 12.18 3.50 11.07L3.50 9.91L4.65 9.91C6.87 9.91 8.18 8.83 8.18 6.55C8.18 4.54 6.87 3.39 4.65 3.39ZM4.33 8.53L3.50 8.51L3.50 4.77L4.33 4.77C5.60 4.77 6.19 5.36 6.19 6.65C6.19 7.85 5.61 8.54 4.33 8.53ZM16.34 11.23L15.04 9.11C16.21 8.74 16.94 7.83 16.94 6.34C16.94 4.52 15.64 3.39 13.40 3.39L9.42 3.39L9.42 3.42C9.79 3.65 10.18 4.33 10.18 5.43L10.18 11.02C10.18 12.17 9.79 12.85 9.42 13.09L9.42 13.12L12.80 13.12L12.80 13.09C12.49 12.85 12.10 12.18 12.10 11.07L12.10 4.77L13.08 4.76C14.28 4.75 14.95 5.39 14.95 6.41C14.95 7.66 14.28 8.15 13.08 8.15L12.40 8.15L14.57 11.86C14.88 12.38 15.11 12.87 15.29 13.41L18.16 12.89L18.16 12.87C17.49 12.64 16.87 12.08 16.34 11.23ZM18.68 13.12L22.12 13.12L22.12 13.09C21.76 12.85 21.36 12.18 21.36 11.02L21.36 5.49C21.36 4.34 21.77 3.65 22.12 3.42L22.12 3.39L18.68 3.39L18.68 3.42C19.04 3.65 19.43 4.33 19.43 5.49L19.43 11.02C19.43 12.17 19.03 12.85 18.68 13.09ZM23.77 13.12L27.01 13.12L27.01 13.09C26.64 12.85 26.29 12.18 26.29 11.02L26.29 8.64C26.29 7.63 26.26 6.72 26.04 5.39L26.10 5.39C26.52 6.68 26.88 7.50 27.55 8.58L29.53 11.79C29.81 12.24 30.07 12.74 30.23 13.12L33.18 13.12L33.18 13.09C32.82 12.85 32.42 12.17 32.42 11.02L32.42 5.49C32.42 4.34 32.82 3.65 33.18 3.42L33.18 3.39L29.95 3.39L29.95 3.42C30.31 3.65 30.66 4.33 30.66 5.49L30.66 8.01C30.66 8.79 30.69 9.77 30.88 10.89L30.83 10.89C30.41 9.81 29.96 8.82 29.54 8.12L27.52 4.73C27.06 3.96 26.98 3.67 26.95 3.39L23.77 3.39L23.77 3.42C24.29 3.77 24.53 4.66 24.53 5.42L24.53 11.02C24.53 12.17 24.12 12.85 23.77 13.09ZM39.55 13.33C40.73 13.33 41.82 13.05 42.53 12.80L42.87 10.29L42.84 10.28C42.11 11.23 41.20 11.84 39.69 11.84C37.74 11.84 36.71 10.32 36.71 8.18C36.71 6.02 37.90 4.66 39.87 4.66C40.95 4.66 41.97 5.08 42.55 5.98L42.57 5.96L42.35 3.54C41.54 3.30 40.78 3.19 39.89 3.19C36.69 3.19 34.62 5.17 34.62 8.32C34.62 11.19 36.53 13.33 39.55 13.33ZM51.04 10.43C50.44 11.28 49.46 11.75 48.23 11.75L46.70 11.75L46.70 8.60L47.99 8.60C48.78 8.60 49.28 8.85 49.52 9.48L49.55 9.48L49.95 7.13C49.32 7.21 48.93 7.22 47.77 7.22L46.70 7.22L46.70 4.76L48.55 4.76C49.64 4.76 50.41 5.11 50.75 5.80L50.78 5.78L50.54 3.28C50.23 3.35 49.62 3.39 49.06 3.39L44.03 3.39L44.03 3.42C44.39 3.65 44.79 4.33 44.79 5.49L44.79 11.02C44.79 12.17 44.38 12.85 44.03 13.09L44.03 13.12L48.97 13.12C49.80 13.12 50.16 13.15 50.68 13.23L51.07 10.44Z"></path></g></svg>